<svg width="22" height="21" viewBox="0 0 22 21" fill="none" xmlns="http://www.w3.org/2000/svg">
<path d="M4 3C4 2.73478 4.10536 2.48043 4.29289 2.29289C4.48043 2.10536 4.73478 2 5 2C5.26522 2 5.51957 2.10536 5.70711 2.29289C5.89464 2.48043 6 2.73478 6 3V11.16L4 12V3ZM10 1C10 0.734784 10.1054 0.48043 10.2929 0.292893C10.4804 0.105357 10.7348 0 11 0C11.2652 0 11.5196 0.105357 11.7071 0.292893C11.8946 0.48043 12 0.734784 12 1V14L10 13.006V1ZM16 3C16 2.73478 16.1054 2.48043 16.2929 2.29289C16.4804 2.10536 16.7348 2 17 2C17.2652 2 17.5196 2.10536 17.7071 2.29289C17.8946 2.48043 18 2.73478 18 3V16H16V3Z" fill="#036FC7"/>
<path d="M0 5C0 4.73478 0.105357 4.48043 0.292893 4.29289C0.48043 4.10536 0.734784 4 1 4H21C21.2652 4 21.5196 4.10536 21.7071 4.29289C21.8946 4.48043 22 4.73478 22 5C22 5.26522 21.8946 5.51957 21.7071 5.70711C21.5196 5.89464 21.2652 6 21 6H1C0.734784 6 0.48043 5.89464 0.292893 5.70711C0.105357 5.51957 0 5.26522 0 5ZM0 9C0 8.73478 0.105357 8.48043 0.292893 8.29289C0.48043 8.10536 0.734784 8 1 8H21C21.2652 8 21.5196 8.10536 21.7071 8.29289C21.8946 8.48043 22 8.73478 22 9C22 9.26522 21.8946 9.51957 21.7071 9.70711C21.5196 9.89464 21.2652 10 21 10H1C0.734784 10 0.48043 9.89464 0.292893 9.70711C0.105357 9.51957 0 9.26522 0 9ZM2 15H4V17H2V15ZM3 19H5V21H3V19ZM8 17H10V19H8V17ZM14 19H16V21H14V19ZM18 18H20V20H18V18Z" fill="#036FC7"/>
</svg>
